<svg width="4" height="6" viewBox="0 0 4 6" fill="none" xmlns="http://www.w3.org/2000/svg">
<path d="M3.10156 6H2.375V1.18359L0.917969 1.71875V1.0625L2.98828 0.285156H3.10156V6Z" fill="#1B1A17"/>
<path d="M3.10156 6V7H4.10156V6H3.10156ZM2.375 6H1.375V7H2.375V6ZM2.375 1.18359H3.375V-0.249017L2.03023 0.244907L2.375 1.18359ZM0.917969 1.71875H-0.0820312V3.15136L1.26274 2.65744L0.917969 1.71875ZM0.917969 1.0625L0.566458 0.126316L-0.0820312 0.369805V1.0625H0.917969ZM2.98828 0.285156V-0.714844H2.80673L2.63677 -0.651028L2.98828 0.285156ZM3.10156 0.285156H4.10156V-0.714844H3.10156V0.285156ZM3.10156 5H2.375V7H3.10156V5ZM3.375 6V1.18359H1.375V6H3.375ZM2.03023 0.244907L0.573197 0.780064L1.26274 2.65744L2.71977 2.12228L2.03023 0.244907ZM1.91797 1.71875V1.0625H-0.0820312V1.71875H1.91797ZM1.26948 1.99868L3.33979 1.22134L2.63677 -0.651028L0.566458 0.126316L1.26948 1.99868ZM2.98828 1.28516H3.10156V-0.714844H2.98828V1.28516ZM2.10156 0.285156V6H4.10156V0.285156H2.10156Z" fill="#1B1A17"/>
</svg>
