<svg width="99" height="22" viewBox="0 0 99 22" fill="none" xmlns="http://www.w3.org/2000/svg">
<path d="M15.8041 19.8638L11.9576 16.0172C12.911 14.8547 13.4857 13.3658 13.4857 11.7429C13.4857 8.02042 10.4653 5 6.74286 5C3.01714 5 0 8.02042 0 11.7429C0 15.4654 3.01714 18.4858 6.74286 18.4858C8.36571 18.4858 9.85143 17.9144 11.0139 16.9609L14.8604 20.8042C15.1216 21.0654 15.5429 21.0654 15.8041 20.8042C16.0653 20.5462 16.0653 20.1217 15.8041 19.8638ZM6.74286 17.1437C3.76163 17.1437 1.33878 14.7209 1.33878 11.7429C1.33878 8.76492 3.76163 6.33878 6.74286 6.33878C9.72082 6.33878 12.1469 8.76492 12.1469 11.7429C12.1469 14.7209 9.72082 17.1437 6.74286 17.1437Z" fill="#1B1A17"/>
<path d="M98.8961 8.05166C98.7931 7.91219 98.6273 7.82598 98.4472 7.81871L87.2816 7.36415C86.9613 7.35091 86.6936 7.58451 86.6799 7.88567C86.6662 8.18672 86.9132 8.44109 87.232 8.45403L97.6416 8.87785L95.5949 14.9093H86.4866L84.841 6.44689C84.8049 6.26142 84.67 6.10669 84.4841 6.03779L81.789 5.03777C81.4919 4.92794 81.1567 5.06574 81.0401 5.34594C80.9236 5.62629 81.0695 5.94306 81.3664 6.05323L83.7628 6.94238L85.4374 15.5533C85.4878 15.8122 85.7267 16.0002 86.0055 16.0002H86.2833L85.649 17.6643C85.5959 17.8037 85.6177 17.9585 85.7081 18.0796C85.7983 18.2007 85.9451 18.2728 86.1017 18.2728H86.5466C86.271 18.5625 86.1017 18.9441 86.1017 19.3637C86.1017 20.266 86.8791 21.0001 87.8343 21.0001C88.7895 21.0001 89.5669 20.266 89.5669 19.3637C89.5669 18.9441 89.3977 18.5625 89.1221 18.2728H92.8996C92.6237 18.5625 92.4546 18.9441 92.4546 19.3637C92.4546 20.266 93.2318 21.0001 94.1872 21.0001C95.1426 21.0001 95.9198 20.266 95.9198 19.3637C95.9198 18.9441 95.7506 18.5625 95.475 18.2728H96.016C96.2819 18.2728 96.4973 18.0693 96.4973 17.8182C96.4973 17.5671 96.2819 17.3637 96.016 17.3637H86.7865L87.3062 16H96.016C96.2672 16 96.4894 15.8468 96.5659 15.6211L98.9723 8.53C99.0275 8.36816 98.9992 8.19121 98.8961 8.05166ZM87.8344 20.0912C87.4097 20.0912 87.0643 19.765 87.0643 19.3639C87.0643 18.9628 87.4097 18.6366 87.8344 18.6366C88.2591 18.6366 88.6044 18.9628 88.6044 19.3639C88.6044 19.765 88.2591 20.0912 87.8344 20.0912ZM94.1872 20.0912C93.7625 20.0912 93.4171 19.765 93.4171 19.3639C93.4171 18.9628 93.7625 18.6366 94.1872 18.6366C94.6119 18.6366 94.9572 18.9628 94.9572 19.3639C94.9572 19.765 94.6119 20.0912 94.1872 20.0912Z" fill="#1B1A17"/>
<path d="M57.9686 9.77107C57.6912 7.00626 55.5306 5.00033 52.8266 5.00033C51.0251 5.00033 49.3757 5.87836 48.4475 7.28559C47.5278 5.86016 45.9459 5 44.1734 5C41.4697 5 39.3087 7.00593 39.0317 9.77074C39.0098 9.89286 38.9199 10.5356 39.1932 11.5837C39.5871 13.0955 40.497 14.4706 41.8238 15.5595L48.4431 21.0001L55.1761 15.5598C56.5029 14.4706 57.4128 13.0959 57.8067 11.5837C58.08 10.5359 57.9902 9.89319 57.9686 9.77107ZM57.0953 11.4321C56.7357 12.8129 55.9022 14.0709 54.6872 15.0677L48.4475 20.1098L42.3149 15.069C41.0977 14.0702 40.2646 12.8126 39.9047 11.4318C39.646 10.4399 39.7523 9.87962 39.7527 9.87598L39.7581 9.84255C39.9956 7.42028 41.8523 5.66191 44.1734 5.66191C45.886 5.66191 47.3937 6.61507 48.1092 8.14905L48.4457 8.87153L48.7822 8.14905C49.4864 6.63857 51.0737 5.66224 52.8269 5.66224C55.1476 5.66224 57.0047 7.42062 57.2469 9.87433C57.2476 9.87962 57.354 10.4403 57.0953 11.4321Z" fill="#1B1A17" stroke="#1B1A17" stroke-width="0.75"/>
<ellipse cx="59.5" cy="6.50004" rx="6.5" ry="6.50004" fill="#E6C8B4"/>
<path d="M60.1016 9H59.375V4.18359L57.918 4.71875V4.0625L59.9883 3.28516H60.1016V9Z" fill="#1B1A17"/>
<path d="M60.1016 9V10H61.1016V9H60.1016ZM59.375 9H58.375V10H59.375V9ZM59.375 4.18359H60.375V2.75098L59.0302 3.24491L59.375 4.18359ZM57.918 4.71875H56.918V6.15136L58.2627 5.65744L57.918 4.71875ZM57.918 4.0625L57.5665 3.12632L56.918 3.36981V4.0625H57.918ZM59.9883 3.28516V2.28516H59.8067L59.6368 2.34897L59.9883 3.28516ZM60.1016 3.28516H61.1016V2.28516H60.1016V3.28516ZM60.1016 8H59.375V10H60.1016V8ZM60.375 9V4.18359H58.375V9H60.375ZM59.0302 3.24491L57.5732 3.78006L58.2627 5.65744L59.7198 5.12228L59.0302 3.24491ZM58.918 4.71875V4.0625H56.918V4.71875H58.918ZM58.2695 4.99868L60.3398 4.22134L59.6368 2.34897L57.5665 3.12632L58.2695 4.99868ZM59.9883 4.28516H60.1016V2.28516H59.9883V4.28516ZM59.1016 3.28516V9H61.1016V3.28516H59.1016Z" fill="#1B1A17"/>
</svg>
