<svg width="93" height="24" viewBox="0 0 93 24" fill="none" xmlns="http://www.w3.org/2000/svg">
<path d="M6.6571 0.67334C2.98565 0.67334 0 3.63873 0 7.28325V16.8407C0 20.4852 2.98565 23.449 6.6571 23.449H16.3429C20.0143 23.449 23 20.4852 23 16.8407V7.28325C23 3.63873 20.0143 0.67334 16.3429 0.67334H6.6571ZM6.6571 2.6313H16.3429C18.9559 2.6313 21.0292 4.68941 21.0292 7.28325V16.8407C21.0292 19.4345 18.9559 21.491 16.3429 21.491H6.6571C4.04408 21.491 1.97241 19.4345 1.97241 16.8407V7.28325C1.97241 4.68941 4.04408 2.6313 6.6571 2.6313ZM17.6727 4.58924C16.9107 4.58924 16.2934 5.20201 16.2934 5.95832C16.2934 6.71466 16.9107 7.32741 17.6727 7.32741C18.4346 7.32741 19.0519 6.71466 19.0519 5.95832C19.0519 5.20201 18.4346 4.58924 17.6727 4.58924ZM11.5 6.19713C8.24893 6.19713 5.59264 8.83395 5.59264 12.0612C5.59264 15.2884 8.24893 17.9252 11.5 17.9252C14.7511 17.9252 17.409 15.2884 17.409 12.0612C17.409 8.83395 14.7511 6.19713 11.5 6.19713ZM11.5 8.15509C13.6853 8.15509 15.4366 9.89192 15.4366 12.0612C15.4366 14.2304 13.6853 15.9672 11.5 15.9672C9.31472 15.9672 7.56504 14.2304 7.56504 12.0612C7.56504 9.89192 9.31472 8.15509 11.5 8.15509Z" fill="#5C5C50"/>
<path d="M49.8317 2.57129C46.6956 2.57129 44.5478 4.30036 44.5478 7.47684V10.2144H41V13.9271H44.5478V23.449H48.7888V13.9271H52.3267L52.8581 10.2144H48.7888V7.84364C48.7888 6.76904 49.1197 6.0365 50.8251 6.0365H53V2.71741C52.6238 2.67218 51.3339 2.57129 49.8317 2.57129Z" fill="#5C5C50"/>
<path d="M93 8.38918C92.191 8.73222 91.321 8.96407 90.4081 9.06852C91.3398 8.5346 92.0552 7.68955 92.3922 6.68282C91.5202 7.17718 90.5546 7.53577 89.526 7.72905C88.7032 6.89117 87.5301 6.36743 86.232 6.36743C83.7393 6.36743 81.7189 8.298 81.7189 10.6796C81.7189 11.0177 81.7584 11.3469 81.8357 11.6623C78.0846 11.4827 74.759 9.76541 72.533 7.15673C72.1444 7.79333 71.9219 8.53398 71.9219 9.3244C71.9219 10.8207 72.7183 12.1404 73.9297 12.914C73.1899 12.8919 72.4939 12.6978 71.8854 12.3746C71.8845 12.3927 71.8845 12.4107 71.8845 12.4287C71.8845 14.5184 73.4404 16.2609 75.5049 16.6573C75.1265 16.7559 74.7279 16.808 74.3162 16.808C74.0251 16.808 73.7429 16.7817 73.4668 16.7311C74.0415 18.4443 75.708 19.6912 77.6833 19.7261C76.1374 20.8829 74.1917 21.5719 72.077 21.5719C71.7129 21.5719 71.3534 21.5514 71 21.5118C72.9982 22.7353 75.3702 23.449 77.9193 23.449C86.2207 23.449 90.7597 16.8783 90.7597 11.1793C90.7597 10.9925 90.7552 10.8069 90.747 10.6219C91.6285 10.0135 92.3936 9.25416 92.999 8.38921" fill="#5C5C50"/>
</svg>
